<svg width="26" height="26" viewBox="0 0 26 26" fill="none" xmlns="http://www.w3.org/2000/svg">
<path d="M17.9797 1.0002C18.9165 0.967856 19.8502 1.12674 20.7236 1.46716C21.597 1.80759 22.3918 2.3224 23.0597 2.9802C23.7035 3.64801 24.2068 4.43809 24.5401 5.30376C24.8733 6.16942 25.0296 7.0931 24.9997 8.0202V17.9802C24.9997 20.0602 24.3197 21.8502 23.0197 23.1102C21.6406 24.3834 19.8156 25.0624 17.9397 25.0002H8.0597C6.19946 25.0578 4.39171 24.3786 3.0297 23.1102C2.35455 22.434 1.82588 21.6259 1.47663 20.7365C1.12738 19.847 0.965033 18.8952 0.999699 17.9402V8.0202C0.999699 3.8002 3.7997 1.0002 8.0197 1.0002H17.9797ZM18.0297 3.2302H8.0597C6.6097 3.2302 5.3597 3.6602 4.5297 4.4802C4.08619 4.95259 3.74249 5.50955 3.51912 6.11779C3.29576 6.72603 3.19732 7.37306 3.2297 8.0202V17.9402C3.2297 19.4402 3.6597 20.6402 4.5297 21.5202C5.50002 22.3784 6.76553 22.8265 8.0597 22.7702H17.9397C19.2339 22.8265 20.4994 22.3784 21.4697 21.5202C21.9355 21.0593 22.3005 20.5067 22.5415 19.8973C22.7825 19.2879 22.8943 18.6351 22.8697 17.9802V8.0202C22.902 6.73287 22.4363 5.48273 21.5697 4.5302C21.0973 4.0867 20.5404 3.74299 19.9321 3.51962C19.3239 3.29626 18.6768 3.19782 18.0297 3.2302V3.2302ZM12.9997 6.7602C16.3897 6.7602 19.1997 9.5602 19.1997 12.9602C19.1997 14.6045 18.5465 16.1815 17.3838 17.3443C16.221 18.507 14.644 19.1602 12.9997 19.1602C11.3554 19.1602 9.77836 18.507 8.61564 17.3443C7.45291 16.1815 6.7997 14.6045 6.7997 12.9602C6.7997 11.3159 7.45291 9.73887 8.61564 8.57614C9.77836 7.41342 11.3554 6.7602 12.9997 6.7602V6.7602ZM12.9997 8.9802C11.9484 8.98546 10.9417 9.40541 10.1983 10.1488C9.45491 10.8922 9.03495 11.8989 9.0297 12.9502C9.03495 14.0015 9.45491 15.0082 10.1983 15.7516C10.9417 16.495 11.9484 16.9149 12.9997 16.9202C14.051 16.9149 15.0577 16.495 15.8011 15.7516C16.5445 15.0082 16.9644 14.0015 16.9697 12.9502C16.9644 11.8989 16.5445 10.8922 15.8011 10.1488C15.0577 9.40541 14.051 8.98546 12.9997 8.9802V8.9802ZM19.4397 5.2102C19.811 5.2102 20.1671 5.3577 20.4296 5.62025C20.6922 5.8828 20.8397 6.2389 20.8397 6.6102C20.8397 6.98151 20.6922 7.3376 20.4296 7.60015C20.1671 7.8627 19.811 8.0102 19.4397 8.0102C19.0684 8.0102 18.7123 7.8627 18.4497 7.60015C18.1872 7.3376 18.0397 6.98151 18.0397 6.6102C18.0397 6.2389 18.1872 5.8828 18.4497 5.62025C18.7123 5.3577 19.0684 5.2102 19.4397 5.2102Z" fill="#83F570"/>
</svg>
